{
  "accessors": [
    {
      "bufferView": 2,
      "componentType": 5126,
      "count": 6717,
      "max": [
        9.640470504760742,
        14.613593101501465,
        19.557422637939453
      ],
      "min": [
        -9.640470504760742,
        -14.18652057647705,
        -17.308719635009766
      ],
      "type": "VEC3"
    },
    {
      "bufferView": 2,
      "byteOffset": 80604,
      "componentType": 5126,
      "count": 6717,
      "max": [
        0.9999886155128479,
        0.9988895058631897,
        0.9928310513496399
      ],
      "min": [
        -0.9999886751174927,
        -0.999981701374054,
        -1.0
      ],
      "type": "VEC3"
    },
    {
      "bufferView": 1,
      "componentType": 5126,
      "count": 6717,
      "max": [
        0.9951218962669373,
        0.9873846769332886
      ],
      "min": [
        0.004878181032836437,
        0.004844130948185921
      ],
      "type": "VEC2"
    },
    {
      "bufferView": 0,
      "componentType": 5125,
      "count": 33552,
      "type": "SCALAR"
    }
  ],
  "asset": {
    "extras": {
      "author": "Shape Foundations (https://sketchfab.com/VAA)",
      "license": "CC-BY-NC-SA-4.0 (http://creativecommons.org/licenses/by-nc-sa/4.0/)",
      "source": "https://sketchfab.com/3d-models/basic-planes-of-the-head-andrew-loomis-a4b1f1ea5a1b49718dc6f03f606d5d76",
      "title": "Basic Planes of the Head (Andrew Loomis)"
    },
    "generator": "Sketchfab-15.25.0",
    "version": "2.0"
  },
  "bufferViews": [
    {
      "buffer": 0,
      "byteLength": 134208,
      "name": "floatBufferViews",
      "target": 34963
    },
    {
      "buffer": 0,
      "byteLength": 53736,
      "byteOffset": 134208,
      "byteStride": 8,
      "name": "floatBufferViews",
      "target": 34962
    },
    {
      "buffer": 0,
      "byteLength": 161208,
      "byteOffset": 187944,
      "byteStride": 12,
      "name": "floatBufferViews",
      "target": 34962
    }
  ],
  "buffers": [
    {
      "byteLength": 349152,
      "uri": "scene.bin"
    }
  ],
  "images": [
    {
      "uri": "textures/Basic_Planes_of_the_Head_baseColor.png"
    }
  ],
  "materials": [
    {
      "doubleSided": true,
      "emissiveFactor": [
        0.4,
        0.4,
        0.4
      ],
      "emissiveTexture": {
        "index": 0
      },
      "name": "Basic_Planes_of_the_Head",
      "pbrMetallicRoughness": {
        "baseColorTexture": {
          "index": 0
        },
        "metallicFactor": 0.0,
        "roughnessFactor": 0.8929713596497552
      }
    }
  ],
  "meshes": [
    {
      "name": "Basic_Planes_of_the_Head_Basic_Planes_of_the_Head_0",
      "primitives": [
        {
          "attributes": {
            "NORMAL": 1,
            "POSITION": 0,
            "TEXCOORD_0": 2
          },
          "indices": 3,
          "material": 0,
          "mode": 4
        }
      ]
    }
  ],
  "nodes": [
    {
      "children": [
        1
      ],
      "matrix": [
        1.0,
        0.0,
        0.0,
        0.0,
        0.0,
        2.220446049250313e-16,
        -1.0,
        0.0,
        0.0,
        1.0,
        2.220446049250313e-16,
        0.0,
        0.0,
        0.0,
        0.0,
        1.0
      ],
      "name": "Sketchfab_model"
    },
    {
      "children": [
        2
      ],
      "matrix": [
        1.0,
        0.0,
        0.0,
        0.0,
        0.0,
        0.0,
        1.0,
        0.0,
        0.0,
        -1.0,
        0.0,
        0.0,
        0.0,
        0.0,
        0.0,
        1.0
      ],
      "name": "ea995a3b7d744df9af8e81bc118ca031.fbx"
    },
    {
      "children": [
        3
      ],
      "name": "RootNode"
    },
    {
      "children": [
        4
      ],
      "matrix": [
        1.0,
        0.0,
        0.0,
        0.0,
        0.0,
        2.220446049250313e-16,
        -1.0,
        0.0,
        0.0,
        1.0,
        2.220446049250313e-16,
        0.0,
        0.0,
        0.0,
        0.0,
        1.0
      ],
      "name": "Basic_Planes_of_the_Head"
    },
    {
      "children": [
        5
      ],
      "matrix": [
        1.0,
        0.0,
        -0.0,
        0.0,
        0.0,
        1.0,
        0.0,
        0.0,
        0.0,
        0.0,
        1.0,
        0.0,
        0.0,
        -0.26946592330932617,
        -1.265869140625,
        1.0
      ],
      "name": "Object_4"
    },
    {
      "mesh": 0,
      "name": "Basic_Planes_of_the_Head_Basic_Planes_of_the_Head_0"
    }
  ],
  "samplers": [
    {
      "magFilter": 9729,
      "minFilter": 9987,
      "wrapS": 10497,
      "wrapT": 10497
    }
  ],
  "scene": 0,
  "scenes": [
    {
      "name": "Sketchfab_Scene",
      "nodes": [
        0
      ]
    }
  ],
  "textures": [
    {
      "sampler": 0,
      "source": 0
    }
  ]
}
